<?xml version="1.0" standalone="no"?>
<!DOCTYPE svg PUBLIC "-//W3C//DTD SVG 20010904//EN"
 "http://www.w3.org/TR/2001/REC-SVG-20010904/DTD/svg10.dtd">
<svg version="1.0" xmlns="http://www.w3.org/2000/svg"
 width="1024.000000pt" height="1024.000000pt" viewBox="0 0 1024.000000 1024.000000"
 preserveAspectRatio="xMidYMid meet">

<g transform="translate(0.000000,1024.000000) scale(0.100000,-0.100000)"
fill="#000000" stroke="none">
<path d="M1048 6282 c-58 -5 -68 -28 -68 -149 0 -132 8 -143 108 -143 107 0
112 7 112 144 0 97 -3 115 -18 130 -19 17 -69 23 -134 18z m130 -42 c8 -17 12
-56 10 -118 -4 -112 -12 -122 -98 -122 -83 0 -94 12 -98 109 -7 142 7 163 106
159 59 -3 68 -6 80 -28z"/>
<path d="M1370 6283 c-53 -10 -60 -27 -60 -149 0 -137 6 -144 110 -144 100 0
104 6 108 137 3 94 1 112 -15 130 -19 22 -93 36 -143 26z m130 -32 c13 -25 13
-211 0 -231 -7 -11 -28 -15 -78 -15 -98 0 -102 5 -102 126 0 126 9 139 105
139 53 0 66 -3 75 -19z"/>
<path d="M1682 6268 c-8 -8 -12 -53 -12 -135 0 -144 -1 -143 108 -143 99 0
105 9 103 147 -2 138 -6 143 -111 143 -46 0 -81 -5 -88 -12z m168 -18 c17 -17
20 -33 20 -119 0 -121 -4 -126 -102 -126 -50 0 -71 4 -78 15 -14 22 -13 223 2
238 7 7 39 12 75 12 50 0 67 -4 83 -20z"/>
<path d="M831 5896 c-51 -18 -109 -72 -136 -126 l-25 -49 0 -527 c0 -371 3
-538 12 -565 15 -51 68 -112 126 -147 l47 -27 570 0 c522 0 573 1 607 17 56
27 106 75 136 132 l27 51 0 530 c0 517 -1 531 -21 575 -23 49 -72 102 -119
128 -27 15 -90 17 -610 19 -439 1 -588 -1 -614 -11z m1209 -22 c54 -25 102
-77 124 -135 15 -39 16 -100 14 -564 -3 -583 0 -557 -79 -636 -69 -69 -69 -69
-668 -69 -338 0 -550 4 -573 10 -55 16 -117 68 -147 125 l-26 50 0 535 0 535
28 47 c15 26 43 59 62 74 70 53 76 53 670 51 534 -2 551 -3 595 -23z"/>
<path d="M1079 5607 c-31 -16 -51 -36 -66 -67 -22 -43 -23 -53 -23 -350 0
-176 4 -320 10 -342 12 -41 66 -94 108 -105 15 -5 167 -8 337 -8 293 0 312 1
350 21 27 14 47 34 63 64 21 43 22 52 22 360 0 290 -2 318 -20 358 -16 35 -29
47 -72 67 -53 25 -55 25 -359 25 -300 0 -307 0 -350 -23z m694 -10 c19 -8 47
-32 63 -53 l29 -37 0 -321 c0 -306 -1 -323 -21 -356 -11 -19 -38 -45 -60 -58
-39 -22 -43 -22 -359 -20 -449 4 -419 -25 -423 418 -3 302 -3 306 20 349 31
60 67 85 136 92 31 3 175 4 319 3 200 -2 269 -6 296 -17z"/>
<path d="M1151 5474 c-45 -32 -51 -66 -51 -314 0 -185 3 -237 15 -260 31 -59
35 -60 315 -60 282 0 294 3 322 60 16 30 18 66 18 258 0 245 -5 273 -58 311
-29 20 -40 21 -284 21 -218 0 -257 -2 -277 -16z m533 -8 c64 -27 66 -34 66
-301 0 -173 -4 -247 -13 -265 -21 -42 -64 -49 -305 -49 -237 -1 -279 6 -301
47 -15 29 -15 493 0 526 23 50 54 56 297 56 168 0 231 -3 256 -14z"/>
<path d="M3177 5868 c-16 -12 -17 -60 -15 -653 l3 -640 265 -3 c161 -2 291 2
332 8 127 22 240 97 289 191 44 86 45 246 3 335 -21 44 -76 99 -124 124 -31
17 -33 19 -15 26 43 16 92 65 120 121 27 52 30 68 29 144 -1 69 -6 96 -27 141
-53 118 -157 191 -296 209 -108 14 -544 11 -564 -3z m667 -37 c72 -29 148
-101 178 -167 26 -59 35 -186 18 -240 -24 -73 -67 -124 -133 -155 -60 -28 -60
-31 -2 -44 18 -4 53 -30 86 -64 45 -46 59 -68 69 -111 18 -76 8 -206 -20 -263
-27 -55 -92 -122 -139 -147 -90 -45 -130 -50 -438 -50 l-293 0 0 628 c0 346 3
632 7 636 4 4 143 6 308 4 288 -3 302 -4 359 -27z"/>
<path d="M3390 5500 l0 -191 143 4 c128 3 149 6 192 28 67 33 86 63 92 140 6
88 -22 143 -90 178 -43 22 -63 25 -192 28 l-145 4 0 -191z m337 141 c104 -59
105 -225 3 -286 -30 -17 -56 -20 -182 -23 l-148 -4 0 172 0 172 143 -4 c127
-3 146 -6 184 -27z"/>
<path d="M3390 4960 l0 -192 174 4 c158 3 177 5 202 24 61 45 89 122 74 205
-10 56 -37 89 -96 119 -45 23 -62 25 -201 28 l-153 4 0 -192z m321 160 c106
-30 150 -145 97 -250 -38 -74 -67 -84 -250 -89 l-158 -3 0 183 0 182 138 -6
c75 -4 153 -11 173 -17z"/>
<path d="M6842 5872 c-10 -7 -12 -144 -10 -653 l3 -644 275 -3 c300 -3 377 6
467 52 62 31 118 88 150 151 34 66 43 204 19 286 -19 65 -82 143 -131 160 -42
16 -44 24 -7 43 94 49 146 183 122 316 -29 164 -144 267 -321 290 -89 11 -549
13 -567 2z m664 -38 c136 -56 214 -174 214 -324 0 -112 -50 -198 -141 -244
-42 -20 -48 -27 -33 -32 57 -18 75 -29 114 -66 63 -61 84 -115 84 -218 0 -55
-6 -104 -18 -137 -34 -102 -144 -190 -265 -213 -47 -9 -169 -12 -473 -10
l-148 0 0 636 0 635 308 -3 c284 -3 311 -5 358 -24z"/>
<path d="M7060 5497 l0 -189 148 4 c170 6 213 18 252 74 33 49 40 145 15 199
-37 76 -119 104 -307 103 l-108 -1 0 -190z m303 157 c85 -29 126 -97 113 -188
-9 -58 -51 -108 -104 -124 -22 -7 -98 -12 -171 -12 l-131 0 0 170 0 170 123 0
c86 0 137 -5 170 -16z"/>
<path d="M7060 4959 l0 -191 179 4 c163 3 182 5 207 24 50 37 66 68 71 135 4
53 1 72 -19 109 -44 86 -113 110 -313 110 l-125 0 0 -191z m320 160 c86 -30
120 -78 120 -171 0 -67 -24 -116 -70 -143 -30 -17 -56 -20 -197 -23 l-163 -4
0 183 0 182 138 -6 c75 -3 153 -11 172 -18z"/>
<path d="M7920 5870 c-13 -8 -15 -91 -18 -632 -1 -343 0 -633 3 -646 5 -22 8
-23 118 -20 l112 3 3 646 2 647 -22 6 c-36 9 -181 7 -198 -4z m210 -645 l0
-635 -105 0 -105 0 0 635 0 635 105 0 105 0 0 -635z"/>
<path d="M5317 5784 c-4 -4 -7 -61 -7 -126 l0 -118 -85 0 -85 0 -2 -32 c0 -18
-2 -53 -3 -78 -4 -83 3 -90 94 -90 l80 0 3 -287 c3 -287 3 -288 29 -344 49
-104 125 -139 301 -139 l108 0 0 105 0 105 -69 0 c-59 0 -74 4 -98 24 l-28 24
-3 256 -3 255 98 3 98 3 3 98 3 97 -100 0 -100 0 -3 123 -3 122 -111 3 c-60 1
-113 -1 -117 -4z m218 -116 c4 -62 5 -120 3 -128 -2 -12 14 -15 97 -16 l100
-2 0 -83 0 -84 -97 -3 -98 -3 0 -255 c0 -281 4 -301 59 -323 19 -8 48 -10 85
-6 l56 7 0 -91 0 -91 -118 0 c-109 0 -122 2 -172 28 -42 21 -60 38 -81 77 -40
72 -49 149 -49 417 l0 237 -82 3 -83 3 -3 89 -3 88 86 -3 85 -4 0 121 c0 66 3
124 7 127 3 4 50 7 104 7 l97 0 7 -112z"/>
<path d="M345 5615 c-33 -32 -35 -110 -5 -143 19 -20 30 -22 139 -22 142 0
151 6 151 93 0 48 -3 58 -26 76 -23 18 -41 21 -131 21 -97 0 -106 -2 -128 -25z
m261 -29 c19 -38 13 -96 -11 -116 -10 -8 -48 -11 -121 -8 -97 3 -107 5 -125
27 -23 29 -25 88 -2 113 14 15 32 18 130 18 l113 0 16 -34z"/>
<path d="M2280 5620 c-16 -16 -20 -33 -20 -79 0 -83 13 -91 147 -91 126 0 143
11 143 90 0 41 -5 56 -25 75 -22 23 -31 25 -125 25 -87 0 -103 -3 -120 -20z
m238 -12 c14 -14 16 -106 2 -128 -7 -11 -34 -16 -107 -18 -118 -4 -131 3 -139
74 -9 76 3 84 130 84 66 0 106 -4 114 -12z"/>
<path d="M8682 5559 c-177 -23 -329 -162 -376 -344 -21 -77 -21 -243 -1 -320
30 -115 94 -206 189 -267 81 -52 147 -70 259 -70 279 1 466 206 467 511 0 319
-231 530 -538 490z m191 -24 c129 -34 217 -105 277 -228 56 -114 70 -211 48
-336 -9 -49 -28 -115 -42 -146 -29 -64 -112 -156 -174 -192 -208 -122 -491
-58 -606 139 -115 197 -93 478 50 637 108 119 284 169 447 126z"/>
<path d="M8665 5343 c-86 -45 -135 -132 -143 -253 -8 -136 36 -252 115 -301
31 -20 51 -24 113 -24 107 0 154 29 201 122 33 65 34 73 34 178 0 96 -3 116
-24 155 -30 58 -77 108 -120 126 -44 19 -138 17 -176 -3z m195 -27 c80 -53
128 -175 115 -290 -8 -75 -52 -174 -93 -208 -32 -27 -113 -50 -148 -43 -10 2
-31 6 -47 10 -15 3 -45 21 -67 41 -54 49 -81 125 -81 225 0 91 6 118 37 181
55 109 187 148 284 84z"/>
<path d="M6128 5546 c-148 -43 -275 -175 -315 -330 -21 -82 -21 -242 2 -326
22 -83 72 -167 136 -224 63 -57 118 -83 216 -103 206 -42 420 52 504 223 48
97 46 98 -98 102 l-122 3 -17 -33 c-32 -64 -90 -98 -165 -98 -102 0 -174 54
-203 151 -9 29 -16 58 -16 65 0 19 64 24 362 24 l287 0 7 37 c4 21 2 75 -4
121 -22 162 -116 298 -250 364 -61 30 -75 33 -172 35 -64 1 -123 -3 -152 -11z
m311 -36 c155 -72 251 -235 251 -427 l0 -73 -329 0 -330 0 6 -37 c10 -76 33
-129 71 -164 92 -87 226 -90 305 -8 20 22 37 46 37 54 0 12 18 15 93 15 50 0
102 3 115 6 65 18 -13 -138 -107 -213 -73 -58 -147 -84 -256 -90 -291 -16
-485 174 -485 475 0 157 45 277 140 373 91 91 198 131 337 125 66 -3 95 -10
152 -36z"/>
<path d="M6189 5354 c-69 -21 -121 -86 -143 -176 l-6 -28 210 0 c235 0 221 -5
198 73 -17 55 -82 122 -133 136 -50 14 -69 13 -126 -5z m149 -23 c20 -10 45
-27 54 -38 19 -21 57 -101 58 -120 0 -10 -46 -13 -196 -13 l-196 0 6 28 c31
126 167 198 274 143z"/>
<path d="M9605 5542 c-82 -25 -112 -43 -167 -97 -92 -93 -138 -217 -138 -373
0 -119 22 -215 66 -289 47 -78 85 -116 153 -151 137 -73 305 -66 412 19 l42
33 -6 -62 c-12 -114 -56 -168 -154 -191 -85 -21 -189 5 -237 58 -17 19 -30 21
-138 21 -135 0 -139 -3 -119 -72 16 -52 92 -133 154 -165 67 -34 165 -53 272
-53 220 0 353 69 424 219 l26 56 0 515 0 515 -102 3 c-98 3 -102 2 -109 -20
-4 -13 -7 -26 -6 -30 4 -14 -11 -8 -32 11 -64 59 -233 85 -341 53z m266 -30
c25 -11 62 -34 82 -51 l36 -32 3 38 3 38 94 5 c63 3 95 1 98 -6 2 -6 3 -231 1
-501 l-3 -490 -40 -79 c-45 -88 -89 -128 -182 -166 -52 -20 -74 -23 -213 -23
-177 0 -241 14 -312 68 -51 39 -96 100 -104 144 l-6 32 111 3 c111 3 112 3
139 -25 68 -71 253 -77 332 -10 47 39 62 78 68 175 l5 88 -38 -35 c-59 -56
-110 -78 -197 -83 -224 -13 -373 108 -423 344 -56 263 62 510 278 580 62 20
209 13 268 -14z"/>
<path d="M9697 5346 c-67 -18 -97 -43 -131 -110 -57 -110 -46 -288 23 -382 37
-52 88 -76 166 -78 83 -1 145 35 189 114 29 52 31 60 31 165 0 94 -3 117 -24
163 -30 66 -76 107 -143 127 -60 17 -50 17 -111 1z m128 -25 c44 -20 90 -62
110 -101 7 -14 19 -59 26 -101 11 -67 10 -85 -4 -145 -29 -114 -91 -175 -186
-182 -139 -10 -222 88 -224 268 -2 96 18 161 64 214 57 64 138 82 214 47z"/>
<path d="M4147 5533 c-13 -12 -7 -54 13 -98 11 -25 33 -78 49 -117 16 -40 63
-156 105 -258 115 -277 186 -457 186 -470 0 -22 -50 -109 -72 -124 -16 -11
-46 -16 -98 -16 -46 0 -81 -5 -88 -12 -15 -15 -16 -152 -2 -179 10 -17 22 -19
148 -19 135 0 139 1 184 29 25 16 54 42 65 57 21 30 86 190 236 579 47 121
117 301 156 400 40 99 71 191 69 205 l-3 25 -125 0 -125 0 -106 -320 c-92
-277 -108 -317 -117 -295 -10 26 -62 170 -158 433 -31 87 -63 165 -71 173 -11
10 -43 14 -127 14 -62 0 -116 -3 -119 -7z m235 -20 c9 -10 57 -133 108 -273
131 -365 136 -380 141 -385 3 -2 54 144 114 326 60 182 113 333 119 335 6 1
55 5 108 7 73 3 101 1 109 -9 8 -10 -15 -78 -94 -276 -57 -145 -122 -310 -145
-368 -219 -565 -216 -559 -295 -596 -46 -21 -66 -24 -169 -24 -137 0 -131 -5
-126 115 l3 69 80 1 c44 1 90 6 102 13 12 7 36 42 54 78 l31 67 -52 131 c-29
72 -75 183 -101 246 -156 374 -219 535 -215 547 4 10 33 13 109 13 86 0 107
-3 119 -17z"/>
<path d="M363 5300 c-30 -12 -43 -41 -43 -95 0 -35 6 -51 25 -70 22 -23 31
-25 125 -25 139 0 160 12 160 93 0 61 -11 82 -51 96 -38 13 -184 14 -216 1z
m231 -29 c21 -23 24 -104 6 -126 -10 -12 -39 -15 -126 -15 -105 0 -114 1 -128
22 -23 32 -20 94 4 118 17 17 33 20 123 20 90 0 106 -3 121 -19z"/>
<path d="M2295 5298 c-31 -17 -35 -28 -35 -95 0 -88 14 -96 155 -91 124 4 135
11 135 91 0 61 -11 82 -51 96 -41 14 -178 14 -204 -1z m221 -29 c13 -14 19
-35 18 -64 -2 -76 0 -75 -128 -75 -131 0 -136 3 -136 81 0 69 16 79 130 79 86
0 99 -2 116 -21z"/>
<path d="M355 4938 c-30 -17 -35 -28 -35 -89 0 -84 10 -89 158 -89 114 0 122
1 136 22 10 13 16 44 16 74 0 45 -4 56 -26 73 -23 18 -40 21 -128 21 -56 0
-110 -6 -121 -12z m251 -33 c12 -19 15 -36 10 -67 -11 -66 -15 -68 -142 -68
-105 0 -114 1 -128 22 -20 29 -20 87 0 116 14 21 23 22 129 22 111 0 115 -1
131 -25z"/>
<path d="M2290 4937 c-22 -11 -25 -20 -28 -76 -5 -95 4 -101 144 -101 105 0
114 1 128 22 16 23 22 114 8 134 -16 25 -55 34 -139 34 -51 0 -99 -6 -113 -13z
m236 -32 c21 -32 13 -103 -12 -122 -12 -8 -50 -13 -109 -13 -116 0 -135 11
-135 80 0 73 12 80 135 80 101 0 105 -1 121 -25z"/>
<path d="M1000 4360 c-18 -18 -20 -33 -20 -128 0 -102 1 -110 24 -131 22 -21
32 -23 96 -19 96 5 100 11 100 150 0 138 -7 148 -110 148 -57 0 -74 -4 -90
-20z m174 -22 c12 -16 16 -47 16 -108 0 -118 -9 -130 -99 -130 -89 0 -95 8
-100 122 -4 124 6 138 99 138 60 0 71 -3 84 -22z"/>
<path d="M1327 4362 c-14 -15 -17 -41 -17 -135 l0 -116 30 -16 c16 -8 54 -15
85 -15 46 0 60 4 80 25 23 22 25 31 25 125 0 94 -2 103 -25 125 -21 22 -33 25
-93 25 -54 0 -72 -4 -85 -18z m171 -14 c8 -8 12 -49 12 -118 0 -69 -4 -110
-12 -118 -7 -7 -40 -12 -77 -12 -93 0 -101 9 -101 127 0 128 3 133 93 133 44
0 78 -5 85 -12z"/>
<path d="M1684 4359 c-16 -17 -20 -40 -22 -125 -4 -99 -3 -104 22 -129 22 -22
33 -25 95 -25 63 0 71 2 90 26 17 22 21 41 21 109 0 91 -13 140 -40 155 -10 6
-48 10 -83 10 -52 0 -67 -4 -83 -21z m170 -15 c20 -20 23 -213 4 -232 -7 -7
-41 -12 -83 -12 -42 0 -76 5 -83 12 -15 15 -16 201 -2 229 9 16 22 19 80 19
49 0 73 -4 84 -16z"/>
</g>
</svg>
