<svg version="1.1" id="Layer_1" xmlns="http://www.w3.org/2000/svg" xmlns:xlink="http://www.w3.org/1999/xlink" x="0px" y="0px"
	 width="100%" viewBox="0 0 1024 1024" enable-background="new 0 0 1024 1024" xml:space="preserve">
<path fill="#000000" opacity="1.000000" stroke="none" 
	d="
M300.011414,571.000000 
	C299.968628,509.179749 299.901093,447.859497 299.884979,386.539246 
	C299.876434,354.120148 323.257507,330.709259 355.661041,330.702179 
	C460.475311,330.679321 565.289673,330.748291 670.103882,330.657715 
	C701.508545,330.630585 725.483582,355.066772 725.412109,385.962067 
	C725.170837,490.275879 725.329407,594.590576 725.310303,698.904968 
	C725.305115,727.227783 702.150940,750.312317 673.719666,750.317505 
	C566.405884,750.337036 459.092133,750.328247 351.778381,750.314331 
	C324.568848,750.310791 302.722565,730.056824 300.575806,702.901123 
	C299.444489,688.590271 300.605164,674.262146 300.339600,659.964966 
	C299.915527,637.137390 300.225037,614.317017 300.020264,591.495056 
	C299.960449,584.830505 300.009064,578.165039 300.011414,571.000000 
M386.430359,649.077148 
	C395.611145,662.592346 408.407745,671.283997 424.600189,671.451111 
	C482.580872,672.049683 540.571899,671.820557 598.558105,671.624268 
	C624.352844,671.536926 647.644897,647.622070 647.659058,621.818726 
	C647.687927,569.330444 647.697449,516.842224 647.658569,464.353973 
	C647.636169,434.088867 622.937622,409.364105 592.641052,409.332184 
	C539.153076,409.275818 485.664978,409.281952 432.176971,409.329651 
	C401.536652,409.356964 377.381409,433.557098 377.342438,464.321655 
	C377.276123,516.643188 377.239899,568.965149 377.400269,621.286255 
	C377.430359,631.102966 380.414612,640.283569 386.430359,649.077148 
M305.266724,662.878601 
	C305.308350,666.195801 305.033630,669.557800 305.494598,672.815674 
	C305.845093,675.292969 304.943665,678.584961 309.065002,679.524963 
	C313.075928,680.439880 315.369751,678.605225 317.419922,675.734924 
	C319.962799,672.174866 321.148743,667.971436 322.885681,664.036499 
	C324.922028,659.423401 323.735168,657.841919 319.360107,655.498657 
	C314.672638,652.988281 310.830994,656.716980 306.641602,656.014465 
	C305.492920,658.024780 305.417999,660.020691 305.266724,662.878601 
z"/>
<path fill="#000000" opacity="1.000000" stroke="none" 
	d="
M656.394043,245.770401 
	C657.538208,267.299469 656.635925,288.393158 656.287231,309.234894 
	C655.348572,310.391907 654.306335,310.305389 653.326721,310.305756 
	C638.011780,310.311676 622.696350,310.240662 607.382141,310.343353 
	C604.008667,310.365967 602.626770,309.262848 602.645813,305.747284 
	C602.753235,285.938293 602.489807,266.125366 602.775513,246.319916 
	C602.970581,232.794769 614.418823,221.985825 628.069031,221.695114 
	C643.440918,221.367767 655.063477,231.077332 656.394043,245.770401 
z"/>
<path fill="#000000" opacity="1.000000" stroke="none" 
	d="
M376.682861,228.663879 
	C386.205658,220.759842 396.423279,219.482788 407.251282,224.356918 
	C417.603088,229.016663 422.329895,237.424332 422.321045,248.660294 
	C422.306335,267.312195 422.211029,285.965240 422.405884,304.615143 
	C422.450775,308.911011 421.233826,310.476135 416.772430,310.402313 
	C402.454315,310.165375 388.128693,310.208527 373.808685,310.375366 
	C369.909088,310.420776 368.577759,309.130920 368.608276,305.194275 
	C368.761841,285.377808 368.610352,265.559113 368.725647,245.742126 
	C368.764404,239.082016 371.850922,233.608398 376.682861,228.663879 
z"/>
<path fill="#000000" opacity="1.000000" stroke="none" 
	d="
M656.629150,815.476685 
	C657.353149,823.446594 657.177490,831.011963 655.994385,838.370911 
	C653.656799,852.911438 637.714966,861.789062 622.010986,857.865295 
	C609.932556,854.847290 602.704102,845.687195 602.687683,833.278381 
	C602.663452,814.950195 602.756592,796.621521 602.622314,778.294312 
	C602.593872,774.410950 603.504028,772.563171 607.875793,772.625061 
	C622.535278,772.832886 637.200928,772.797424 651.861389,772.622803 
	C655.633606,772.577881 656.597717,773.779175 656.530823,777.531555 
	C656.308044,790.020569 656.526550,802.517456 656.629150,815.476685 
z"/>
<path fill="#000000" opacity="1.000000" stroke="none" 
	d="
M421.523376,773.510498 
	C422.884705,781.802612 422.197357,789.794312 422.287933,797.768677 
	C422.418457,809.259460 422.354126,820.753235 422.293976,832.245239 
	C422.229034,844.656677 415.404541,854.237427 404.316284,857.648071 
	C392.372986,861.321716 380.062256,857.410645 373.123322,847.842407 
	C370.174377,843.776062 368.776764,839.171509 368.740936,834.297729 
	C368.601532,815.311340 368.668701,796.323486 368.659607,777.336182 
	C368.658539,775.107910 368.552368,772.745422 371.767883,772.771606 
	C388.238281,772.905762 404.716400,772.119629 421.523376,773.510498 
z"/>
<path fill="#000000" opacity="1.000000" stroke="none" 
	d="
M531.921143,230.134674 
	C536.323975,235.308090 538.264954,241.043304 538.275696,247.403854 
	C538.307800,266.382507 538.152527,285.362305 538.328796,304.339264 
	C538.369873,308.761078 537.220703,310.515717 532.482544,310.416351 
	C519.003479,310.133698 505.512848,310.181885 492.030914,310.381134 
	C487.899811,310.442139 486.568390,309.067535 486.605225,304.949341 
	C486.774902,285.972046 486.669739,266.992371 486.685181,248.013565 
	C486.694672,236.347031 492.184387,227.816010 502.320007,223.631348 
	C512.490601,219.432205 523.660889,221.802795 531.921143,230.134674 
z"/>
<path fill="#000000" opacity="1.000000" stroke="none" 
	d="
M531.893738,772.701416 
	C536.867310,772.095642 538.424927,773.842224 538.362366,778.533020 
	C538.117981,796.851257 538.276245,815.174927 538.291077,833.496582 
	C538.303894,849.249573 526.548035,858.619141 512.528076,859.024780 
	C497.641052,859.455322 486.700867,848.113159 486.681885,833.177246 
	C486.659210,815.355225 486.669403,797.533264 486.676331,779.711243 
	C486.679077,772.726868 486.692627,772.720398 493.931763,772.714966 
	C506.423828,772.705566 518.915894,772.705200 531.893738,772.701416 
z"/>
<path fill="#000000" opacity="1.000000" stroke="none" 
	d="
M747.681763,422.999939 
	C747.684631,415.012939 747.778320,407.524414 747.648682,400.039734 
	C747.592712,396.811096 748.878418,395.643555 752.062378,395.657684 
	C770.529846,395.739594 789.000793,395.503845 807.464539,395.780304 
	C817.794617,395.934937 828.452209,406.726929 829.303223,417.083466 
	C830.842957,435.821991 820.310913,447.312531 801.583862,447.312653 
	C785.611633,447.312714 769.637817,447.177307 753.668091,447.374664 
	C749.212952,447.429718 747.320740,446.189270 747.594849,441.463959 
	C747.941040,435.494324 747.680725,429.489563 747.681763,422.999939 
z"/>
<path fill="#000000" opacity="1.000000" stroke="none" 
	d="
M813.634277,508.860779 
	C826.296997,515.109985 830.730835,523.341370 829.302612,537.344971 
	C828.354614,546.640381 820.580017,555.452637 810.572266,557.772644 
	C803.416931,559.431458 795.995789,558.585632 788.709167,558.788879 
	C776.428833,559.131409 764.127808,558.701050 751.835205,558.655762 
	C748.986511,558.645264 747.622925,557.614563 747.643555,554.540894 
	C747.739380,540.233154 747.717651,525.924377 747.672302,511.616150 
	C747.663696,508.919067 748.713623,507.685303 751.491455,507.691956 
	C770.624390,507.737762 789.757507,507.697693 808.890320,507.766205 
	C810.342834,507.771393 811.793152,508.401489 813.634277,508.860779 
z"/>
<path fill="#000000" opacity="1.000000" stroke="none" 
	d="
M754.098755,670.327515 
	C749.108398,670.975647 747.489563,669.189148 747.584595,664.522644 
	C747.852600,651.372314 747.826111,638.210388 747.588867,625.058838 
	C747.512024,620.798401 748.819153,618.819397 753.169739,619.062866 
	C771.967773,620.114441 790.794434,619.154602 809.591980,619.781799 
	C819.964905,620.127869 829.664612,632.102173 829.634705,643.639099 
	C829.593445,659.596802 818.990479,670.278076 803.045288,670.322144 
	C786.892212,670.366821 770.738892,670.328613 754.098755,670.327515 
z"/>
<path fill="#000000" opacity="1.000000" stroke="none" 
	d="
M226.074722,447.289185 
	C204.916061,449.335114 190.851562,426.889282 201.417740,407.929413 
	C205.863052,399.952820 212.681778,395.790802 221.745316,395.720306 
	C238.905960,395.586792 256.069611,395.793823 273.229156,395.602722 
	C277.587006,395.554199 278.763428,396.690613 278.613007,401.284454 
	C278.166107,414.932404 278.270020,428.607361 278.538910,442.264282 
	C278.617920,446.277252 277.473633,447.428711 273.547882,447.382141 
	C257.887909,447.196381 242.224533,447.294495 226.074722,447.289185 
z"/>
<path fill="#000000" opacity="1.000000" stroke="none" 
	d="
M240.000153,507.676086 
	C251.333206,507.676727 262.169617,507.833527 272.997650,507.599884 
	C277.213104,507.508911 278.657684,508.409821 278.548035,513.125549 
	C278.230743,526.773376 278.544159,540.441101 278.863403,554.095093 
	C278.944427,557.562012 277.954102,558.966919 274.430084,558.917725 
	C255.946014,558.659607 237.454102,558.745605 218.977341,558.249329 
	C205.838974,557.896545 195.410126,542.550598 198.030762,528.872986 
	C200.664154,515.128906 211.401428,506.557953 224.505798,507.614929 
	C229.473251,508.015594 234.500275,507.677521 240.000153,507.676086 
z"/>
<path fill="#000000" opacity="1.000000" stroke="none" 
	d="
M255.999939,670.343628 
	C244.336273,670.339417 233.172119,670.397339 222.009048,670.312561 
	C209.538239,670.217896 199.320953,660.748474 197.869751,647.396973 
	C196.757111,637.160156 201.921555,624.050964 214.685837,620.428162 
	C216.488159,619.916687 218.249954,619.673584 220.085297,619.670837 
	C237.580612,619.644836 255.075943,619.599243 272.571259,619.601501 
	C278.692383,619.602295 278.462280,619.654907 278.434570,626.035522 
	C278.377441,639.192932 278.431335,652.355835 278.792908,665.506775 
	C278.899597,669.386719 277.630524,670.507080 273.993744,670.387817 
	C268.168243,670.196655 262.331787,670.340576 255.999939,670.343628 
z"/>
<path fill="#000000" opacity="1.000000" stroke="none" 
	d="
M610.252563,521.000000 
	C610.258484,548.325867 610.328003,575.151917 610.242188,601.977539 
	C610.185974,619.544434 600.414551,631.781250 583.477600,635.712830 
	C581.399536,636.195251 579.195862,636.301331 577.050171,636.303040 
	C534.395325,636.337769 491.740479,636.352051 449.085632,636.323853 
	C430.450043,636.311584 416.683075,622.430176 416.676331,603.702454 
	C416.661346,562.047363 416.659546,520.392212 416.681213,478.737091 
	C416.690643,460.561676 430.458252,446.722595 448.539062,446.713684 
	C490.694031,446.692932 532.854736,447.113190 575.001282,446.517853 
	C593.424072,446.257599 610.303467,459.271515 610.231262,481.511108 
	C610.189026,494.507233 610.240784,507.503693 610.252563,521.000000 
z"/>
</svg>