<?xml version="1.0" standalone="no"?>
<!DOCTYPE svg PUBLIC "-//W3C//DTD SVG 20010904//EN"
 "http://www.w3.org/TR/2001/REC-SVG-20010904/DTD/svg10.dtd">
<svg version="1.0" xmlns="http://www.w3.org/2000/svg"
 width="1024.000000pt" height="1024.000000pt" viewBox="0 0 1024.000000 1024.000000"
 preserveAspectRatio="xMidYMid meet">

<g transform="translate(0.000000,1024.000000) scale(0.100000,-0.100000)"
fill="#000000" stroke="none">
<path d="M4856 9230 c-1223 -80 -2297 -654 -3025 -1619 -630 -833 -912 -1912
-775 -2958 112 -855 500 -1657 1103 -2277 538 -552 1197 -942 1911 -1129 760
-200 1616 -175 2345 68 575 191 1115 520 1563 950 681 653 1103 1495 1217
2425 23 182 31 594 16 804 -67 950 -484 1869 -1151 2536 -635 637 -1460 1047
-2340 1164 -275 36 -629 51 -864 36z m-521 -1631 c25 -7 56 -27 81 -54 57 -59
65 -102 64 -362 l-1 -213 -210 0 -209 0 0 218 c1 240 6 277 47 336 50 73 135
100 228 75z m870 -8 c49 -23 99 -75 114 -120 7 -21 11 -120 11 -267 l0 -234
-205 0 -205 0 0 235 c0 190 3 243 16 273 45 108 168 160 269 113z m823 13 c43
-9 111 -69 133 -118 16 -36 19 -69 19 -278 l0 -238 -210 0 -210 0 0 213 c1
242 6 283 46 341 49 69 130 98 222 80z m464 -851 c80 -38 148 -98 198 -175 75
-115 71 -35 68 -1433 l-3 -1250 -32 -68 c-62 -130 -192 -227 -335 -247 -86
-13 -2456 -13 -2532 0 -127 21 -262 113 -319 218 -59 109 -57 55 -57 1382 0
1342 -3 1279 63 1389 57 94 180 185 285 210 21 5 595 8 1317 8 l1280 -2 67
-32z m-3204 -685 l-3 -203 -194 -3 c-216 -3 -274 7 -332 55 -87 74 -91 222 -7
300 51 48 79 52 316 53 l222 0 -2 -202z m4162 182 c116 -59 144 -218 57 -317
-55 -62 -76 -67 -324 -71 l-223 -4 0 206 0 206 225 0 c206 0 229 -2 265 -20z
m-4160 -1051 l0 -210 -227 3 c-195 3 -233 6 -260 21 -159 86 -146 318 22 384
19 7 106 12 248 12 l217 1 0 -211z m4138 195 c75 -31 132 -117 132 -198 0 -80
-70 -174 -145 -195 -23 -6 -126 -11 -247 -11 l-208 0 0 210 0 210 215 0 c172
0 223 -3 253 -16z m-4140 -1047 l2 -208 -234 3 -234 3 -43 30 c-57 41 -84 94
-84 170 0 75 26 129 83 169 52 37 83 41 317 41 l190 0 3 -208z m4167 177 c73
-43 116 -135 101 -217 -10 -56 -61 -123 -111 -146 -41 -19 -62 -21 -265 -21
l-220 0 -1 98 c0 88 0 311 1 321 0 2 101 1 225 -2 220 -6 227 -7 270 -33z
m-2980 -1374 c0 -233 0 -236 -26 -285 -62 -121 -210 -148 -311 -57 -68 61 -72
78 -76 330 -2 122 -1 229 2 237 5 13 36 15 208 13 l203 -3 0 -235z m855 -2 c0
-227 -1 -244 -21 -286 -25 -51 -89 -97 -151 -107 -84 -15 -177 36 -217 118
-19 40 -21 60 -21 280 l0 237 205 0 205 0 0 -242z m845 -9 l0 -246 -27 -41
c-31 -46 -94 -87 -150 -97 -50 -9 -126 17 -167 57 -64 63 -66 71 -69 321 -2
126 -1 235 2 243 5 12 38 14 208 12 l203 -3 0 -246z"/>
<path d="M4455 6199 c-188 -20 -339 -162 -381 -358 -21 -100 -20 -1262 1
-1344 33 -126 121 -244 221 -295 105 -53 97 -53 845 -50 l694 3 64 27 c126 54
203 132 253 257 l23 56 0 670 c0 610 -2 675 -17 726 -40 128 -158 247 -288
291 -64 22 -73 22 -710 22 -355 1 -672 -2 -705 -5z m1240 -323 c28 -12 67 -42
88 -66 75 -82 72 -55 72 -635 l0 -520 -28 -58 c-16 -31 -43 -68 -61 -82 -72
-55 -75 -55 -649 -55 -517 0 -532 1 -574 21 -56 27 -117 98 -133 154 -9 33
-13 175 -14 548 0 501 0 502 22 552 30 65 75 112 137 141 l50 24 520 0 520 0
50 -24z"/>
</g>
</svg>
